<?xml version="1.0" standalone="no"?>
<!DOCTYPE svg PUBLIC "-//W3C//DTD SVG 20010904//EN"
 "http://www.w3.org/TR/2001/REC-SVG-20010904/DTD/svg10.dtd">
<svg version="1.0" xmlns="http://www.w3.org/2000/svg"
 width="900.000000pt" height="900.000000pt" viewBox="0 0 900.000000 900.000000"
 preserveAspectRatio="xMidYMid meet">

<g transform="translate(0.000000,900.000000) scale(0.100000,-0.100000)"
fill="#000000" stroke="none">
<path d="M5017 6673 c-13 -12 -7 -48 13 -78 27 -41 26 -48 -16 -88 l-36 -34
23 -94 c25 -100 36 -119 67 -119 27 0 32 19 15 54 -16 31 -12 111 8 189 10 37
2 85 -23 150 -10 25 -36 36 -51 20z"/>
<path d="M3366 6518 c-9 -12 -16 -29 -16 -36 0 -21 -71 -132 -92 -143 -20 -11
-24 -58 -9 -88 6 -10 28 -30 50 -46 33 -22 48 -27 80 -22 21 2 43 2 48 -2 16
-10 45 -102 52 -161 5 -42 11 -57 27 -65 39 -19 54 -37 54 -64 0 -15 7 -36 15
-47 15 -19 15 -19 35 5 16 18 20 38 20 88 0 48 6 75 21 103 15 26 20 47 15 64
-6 24 -11 26 -59 26 -78 0 -90 13 -99 107 -7 78 -16 150 -23 189 -6 29 -73
114 -90 114 -8 0 -21 -10 -29 -22z m52 -130 c18 -18 15 -53 -8 -97 -38 -76
-116 -66 -96 12 5 22 72 97 85 97 4 0 12 -5 19 -12z"/>
<path d="M4084 6505 c-7 -18 2 -45 15 -45 5 0 11 7 15 15 7 18 -2 45 -15 45
-5 0 -12 -7 -15 -15z"/>
<path d="M4332 6448 c-19 -19 -15 -66 7 -78 30 -15 36 -13 56 24 16 29 17 37
6 50 -16 19 -52 21 -69 4z"/>
<path d="M4812 6382 c-13 -31 -33 -82 -45 -112 -11 -30 -33 -73 -49 -94 -21
-30 -25 -43 -16 -53 15 -18 34 -1 49 45 6 20 25 53 41 74 15 20 35 55 43 78
16 45 20 120 8 120 -5 0 -19 -26 -31 -58z"/>
<path d="M5792 6398 c-14 -14 -16 -64 -2 -73 13 -8 70 22 77 41 13 34 -47 60
-75 32z"/>
<path d="M3937 6364 c-21 -20 -38 -43 -38 -52 2 -73 11 -184 16 -192 3 -6 15
-10 26 -10 29 0 39 40 32 128 -4 62 -2 84 11 110 16 30 15 52 -2 52 -4 0 -24
-17 -45 -36z"/>
<path d="M4217 6369 c-23 -13 -22 -36 3 -49 24 -13 40 -5 40 19 0 27 -21 42
-43 30z"/>
<path d="M4084 6356 c-8 -21 0 -79 11 -82 6 -2 18 12 27 31 15 31 16 36 2 50
-19 19 -33 19 -40 1z"/>
<path d="M5958 6343 c-20 -5 -29 -26 -18 -44 13 -20 65 1 65 26 0 20 -17 27
-47 18z"/>
<path d="M4361 6263 c-21 -61 -20 -97 5 -101 38 -5 49 21 34 83 -7 30 -16 55
-19 55 -3 0 -12 -17 -20 -37z"/>
<path d="M4962 6220 c-29 -27 -28 -44 4 -65 22 -14 25 -21 20 -53 -9 -54 3
-66 60 -59 33 3 55 0 71 -10 21 -14 25 -13 52 9 57 45 80 144 39 172 -28 20
-42 7 -28 -28 5 -15 10 -38 10 -52 0 -32 -42 -74 -73 -74 -21 0 -28 10 -52 78
-15 42 -32 83 -37 90 -15 18 -41 15 -66 -8z"/>
<path d="M5841 6203 c-8 -3 -39 -26 -68 -49 -61 -49 -64 -50 -103 -28 -32 20
-63 12 -58 -13 2 -10 16 -24 31 -31 15 -7 27 -18 27 -24 0 -15 -31 -37 -52
-38 -9 0 -29 -5 -45 -11 -24 -9 -25 -12 -12 -20 9 -5 20 -20 23 -34 8 -33 22
-32 98 9 52 27 63 38 65 61 2 34 26 61 76 86 33 18 37 23 37 59 0 22 -1 40 -2
39 -2 0 -10 -3 -17 -6z"/>
<path d="M5876 6088 c12 -39 42 -49 64 -23 20 25 4 45 -35 45 -33 0 -36 -2
-29 -22z"/>
<path d="M3236 6054 c-34 -34 -5 -94 38 -78 21 8 21 58 0 78 -8 9 -17 16 -19
16 -2 0 -11 -7 -19 -16z"/>
<path d="M2617 5963 c-17 -16 -4 -52 29 -84 41 -38 64 -84 64 -127 0 -39 8
-44 41 -27 33 18 43 7 34 -35 -7 -33 -34 -40 -55 -15 -18 22 -56 18 -74 -6
-13 -19 -13 -25 -1 -50 17 -32 52 -59 77 -59 15 0 50 42 61 73 1 5 23 11 48
14 45 5 46 5 110 -61 61 -62 99 -83 99 -52 0 16 -27 53 -87 118 -48 53 -52 76
-22 124 28 47 18 71 -34 81 -39 8 -42 11 -52 53 -13 54 -39 63 -75 25 -31 -33
-60 -32 -95 5 -27 29 -54 38 -68 23z"/>
<path d="M5737 5803 c-11 -10 -8 -27 6 -47 15 -21 47 -12 47 13 0 30 -35 52
-53 34z"/>
<path d="M4459 5775 c-226 -37 -424 -227 -601 -576 -43 -85 -68 -123 -84 -129
-13 -5 -52 -6 -86 -2 -119 14 -346 6 -457 -17 -210 -42 -374 -152 -448 -301
-87 -174 -69 -414 49 -656 54 -109 127 -228 173 -281 l42 -47 77 -4 c71 -4 80
-2 116 23 22 15 40 30 40 34 0 28 245 241 276 241 24 0 24 0 24 -128 0 -115 2
-130 20 -150 27 -29 64 -28 88 3 16 21 20 47 25 187 7 183 15 229 49 265 66
71 379 263 624 384 155 75 169 76 311 7 215 -103 584 -328 641 -391 32 -35 40
-76 47 -257 3 -85 8 -164 10 -176 5 -25 45 -45 76 -37 47 11 50 20 43 109 -4
45 -3 103 0 128 7 43 9 46 37 46 31 0 124 -76 244 -200 75 -77 100 -90 173
-90 78 0 110 23 178 123 118 175 184 329 215 503 18 101 19 126 9 183 -40 230
-157 368 -380 450 -130 47 -402 73 -553 52 -118 -17 -130 -9 -195 125 -154
314 -356 519 -560 568 -89 22 -141 24 -223 11z m222 -144 c143 -55 289 -209
410 -436 74 -138 67 -161 -62 -194 -128 -33 -243 -69 -354 -111 -59 -22 -116
-40 -126 -40 -10 0 -76 21 -146 47 -128 46 -193 67 -333 103 -77 20 -110 44
-110 81 0 24 88 192 143 274 22 33 77 96 121 140 152 150 302 194 457 136z
m-971 -706 c26 -23 25 -49 -4 -149 -27 -91 -60 -243 -77 -359 -7 -43 -19 -91
-28 -106 -9 -16 -65 -71 -126 -122 -60 -52 -156 -140 -212 -196 -56 -57 -108
-103 -116 -103 -40 0 -106 87 -186 247 -75 150 -104 259 -99 380 3 81 8 107
30 153 95 193 307 283 651 276 125 -2 150 -6 167 -21z m2150 -5 c196 -50 320
-154 369 -309 17 -53 13 -180 -9 -264 -32 -127 -121 -307 -201 -409 -47 -59
-67 -53 -173 50 -100 96 -213 197 -282 250 -64 50 -79 83 -104 222 -26 147
-56 288 -76 348 -28 84 -12 125 51 135 17 3 100 4 185 2 119 -2 174 -8 240
-25z m-1807 -50 c201 -53 252 -72 255 -98 5 -33 -12 -49 -107 -98 -100 -50
-160 -85 -251 -143 -104 -66 -120 -73 -146 -67 -33 9 -31 32 11 199 39 152 54
195 79 220 23 22 28 22 159 -13z m1156 3 c21 -21 35 -57 59 -143 49 -183 58
-238 39 -257 -22 -22 -47 -13 -167 62 -58 37 -143 87 -190 112 -211 113 -214
134 -20 191 58 17 128 38 155 46 72 21 93 19 124 -11z"/>
<path d="M6330 5768 c0 -22 14 -35 53 -52 33 -13 38 -19 35 -43 -2 -23 -11
-31 -53 -46 -64 -23 -71 -31 -58 -59 6 -13 14 -31 17 -41 8 -25 33 -10 100 57
31 32 71 60 100 71 47 18 48 19 42 53 -3 19 -8 37 -11 40 -2 3 -23 0 -45 -7
-45 -13 -72 -8 -109 20 -27 22 -71 25 -71 7z"/>
<path d="M6272 5467 c-25 -27 -28 -37 -8 -37 12 0 46 40 46 55 0 12 -18 4 -38
-18z"/>
<path d="M2316 5409 c-28 -33 -40 -67 -34 -96 3 -14 13 -18 45 -18 53 0 66
-13 69 -70 2 -25 6 -50 9 -55 20 -33 78 16 160 134 29 42 36 61 31 80 -5 20
-13 26 -35 26 -22 0 -37 -10 -61 -41 -45 -55 -69 -51 -94 19 -22 63 -50 69
-90 21z"/>
<path d="M6765 5400 c-3 -5 -2 -10 4 -10 5 0 13 5 16 10 3 6 2 10 -4 10 -5 0
-13 -4 -16 -10z"/>
<path d="M6920 5361 c-14 -27 -13 -47 4 -80 20 -37 58 -54 83 -36 17 13 17 15
1 42 -10 15 -25 43 -33 61 -17 36 -39 41 -55 13z"/>
<path d="M6700 5301 c0 -10 7 -24 16 -31 65 -55 33 -100 -96 -134 -39 -11 -45
-16 -48 -42 -5 -39 -19 -54 -53 -54 -33 0 -37 -10 -11 -33 14 -13 38 -17 89
-17 84 0 96 10 87 67 -5 36 -3 42 30 71 20 18 40 32 44 32 13 0 42 56 42 80 0
26 -54 80 -81 80 -12 0 -19 -7 -19 -19z"/>
<path d="M2162 5158 c-16 -16 -15 -55 1 -61 18 -7 53 9 61 28 13 35 -35 60
-62 33z"/>
<path d="M2335 5030 c-11 -5 -32 -9 -46 -9 -54 -2 -42 -54 23 -101 74 -54 126
-27 97 51 -18 49 -45 71 -74 59z"/>
<path d="M1813 4730 c-54 -33 -57 -50 -17 -109 35 -51 36 -52 74 -46 35 6 40
4 65 -29 24 -31 29 -34 55 -25 25 9 34 6 79 -27 28 -21 54 -46 57 -56 8 -25
61 -51 90 -44 28 7 44 41 44 92 0 69 63 52 83 -23 12 -48 33 -66 48 -42 16 25
9 65 -21 125 -16 32 -34 78 -40 100 -15 61 -45 94 -84 94 -38 0 -61 -22 -71
-65 -13 -59 -17 -65 -34 -65 -22 0 -76 56 -90 93 -15 39 -36 43 -82 18 l-39
-22 -43 25 -43 25 -31 -19z"/>
<path d="M6967 4714 c-4 -4 -7 -15 -7 -24 0 -25 -42 -41 -82 -29 -68 19 -93 7
-81 -40 4 -17 13 -21 47 -21 58 0 223 43 243 63 18 18 19 18 -47 35 -19 6 -42
13 -51 16 -8 4 -18 3 -22 0z"/>
<path d="M7178 4535 c-3 -4 -2 -20 4 -36 6 -16 8 -43 6 -59 -6 -38 37 -83 73
-78 38 5 35 40 -8 91 -21 25 -45 55 -53 67 -8 12 -18 19 -22 15z"/>
<path d="M7340 4485 c0 -8 5 -15 10 -15 6 0 10 7 10 15 0 8 -4 15 -10 15 -5 0
-10 -7 -10 -15z"/>
<path d="M7040 4447 c0 -13 5 -28 11 -34 7 -7 15 -29 18 -50 4 -25 12 -39 24
-41 17 -3 18 2 11 60 -6 62 -21 88 -51 88 -7 0 -13 -10 -13 -23z"/>
<path d="M1955 4450 c-9 -15 3 -47 21 -54 21 -8 34 1 34 23 0 32 -40 55 -55
31z"/>
<path d="M1746 4424 c-8 -21 11 -45 30 -37 20 7 14 47 -7 51 -9 2 -19 -5 -23
-14z"/>
<path d="M6856 4388 c-11 -41 -25 -159 -20 -172 13 -33 45 -14 59 34 4 14 19
37 32 52 30 32 26 50 -19 78 -38 23 -47 25 -52 8z"/>
<path d="M1916 4311 c-9 -14 27 -40 94 -66 111 -43 210 -46 210 -5 0 27 -30
40 -93 40 -30 0 -80 9 -112 20 -63 22 -91 25 -99 11z"/>
<path d="M4464 3891 c-24 -11 -50 -33 -62 -53 -26 -42 -26 -42 -6 -62 12 -13
41 -16 147 -16 154 0 184 10 166 58 -31 80 -150 116 -245 73z"/>
<path d="M2950 3701 c-74 -4 -143 -10 -152 -15 -29 -13 -21 -46 20 -86 23 -21
42 -51 45 -70 4 -18 7 -227 7 -464 -1 -473 -3 -489 -59 -534 -35 -26 -40 -58
-13 -78 27 -21 502 -20 542 1 32 17 37 29 18 44 -7 6 -29 23 -48 40 l-35 29
-3 472 c-2 312 1 484 8 511 8 29 21 46 50 65 22 15 40 33 40 41 0 39 -161 56
-420 44z"/>
<path d="M3539 3700 c-121 -7 -146 -31 -88 -86 56 -53 59 -67 59 -264 0 -167
-1 -181 -20 -200 -11 -11 -26 -20 -32 -21 -7 -1 -28 -2 -47 -4 -75 -6 -63 -85
14 -85 18 0 43 -9 56 -19 24 -19 24 -21 24 -231 l0 -211 -49 -45 -48 -45 23
-25 22 -24 254 0 c240 0 254 1 273 20 27 27 25 34 -12 65 -18 15 -38 37 -45
49 -17 29 -18 957 -2 989 7 12 27 36 46 54 67 62 29 80 -182 84 -88 2 -199 2
-246 -1z"/>
<path d="M4325 3703 c-112 -6 -134 -41 -66 -106 29 -27 40 -47 45 -79 8 -58 1
-919 -8 -940 -4 -9 -23 -29 -42 -43 -39 -30 -45 -68 -15 -85 25 -13 490 -14
526 0 45 17 42 38 -11 84 l-49 43 -2 466 c-1 282 2 479 8 500 6 21 25 48 45
65 44 36 42 60 -6 84 -30 15 -60 18 -200 16 -91 -1 -192 -3 -225 -5z"/>
<path d="M5754 3701 c-197 -8 -219 -22 -146 -97 34 -34 40 -47 45 -99 10 -95
5 -897 -5 -925 -5 -14 -25 -38 -44 -53 -40 -33 -43 -50 -12 -71 19 -13 62 -16
264 -16 133 0 250 3 258 6 9 4 21 15 27 26 9 17 5 27 -31 63 -30 31 -45 56
-51 87 -5 23 -8 246 -8 493 -1 248 -1 474 -1 503 0 72 -21 93 -92 90 -29 -1
-121 -4 -204 -7z"/>
<path d="M4970 3682 c-28 -22 -20 -41 35 -86 84 -69 75 -103 -95 -341 -55 -77
-105 -153 -111 -168 -19 -46 -4 -131 55 -310 31 -92 56 -179 56 -193 0 -14
-11 -40 -25 -58 -31 -41 -31 -50 0 -70 36 -24 515 -24 539 0 24 24 19 50 -14
74 -45 32 -45 32 -257 597 l-76 202 34 56 c46 77 131 159 195 189 83 40 105
95 47 117 -13 5 -100 9 -193 9 -145 0 -171 -2 -190 -18z"/>
<path d="M6178 3686 c-28 -21 -22 -58 17 -96 54 -52 65 -100 65 -279 0 -86 -5
-173 -11 -195 -6 -21 -28 -57 -50 -81 -21 -23 -39 -51 -39 -62 0 -38 24 -46
119 -40 114 7 199 41 264 105 62 60 84 103 98 193 22 143 -12 272 -92 350 -59
57 -122 88 -219 105 -95 17 -130 17 -152 0z"/>
</g>
</svg>
